<?xml version="1.0" encoding="UTF-8" standalone="no"?>
<svg width="90px" height="74px" viewBox="0 0 90 74" version="1.1" xmlns="http://www.w3.org/2000/svg" xmlns:xlink="http://www.w3.org/1999/xlink" xmlns:sketch="http://www.bohemiancoding.com/sketch/ns">
    <!-- Generator: Sketch 3.4.4 (17249) - http://www.bohemiancoding.com/sketch -->
    <title>card</title>
    <desc>Created with Sketch.</desc>
    <defs></defs>
    <g id="Page-1" stroke="none" stroke-width="1" fill="none" fill-rule="evenodd" sketch:type="MSPage">
        <g id="card" sketch:type="MSLayerGroup">
            <rect id="Rectangle-1" fill="#FFFFFF" sketch:type="MSShapeGroup" transform="translate(47.805861, 34.024794) rotate(15.000000) translate(-47.805861, -34.024794) " x="14.3058612" y="13.0247944" width="67" height="42"></rect>
            <path d="M75.685,67.435 C77.142,66.675 78.372,65.247 78.832,63.535 L89.196,24.991 C90.069,21.743 88.145,18.405 84.896,17.532 L23.489,1.02 C20.241,0.147 16.901,2.072 16.029,5.318 L11.568,21.912 L17.172,21.912 L20.611,9.119 C21.097,7.314 22.951,6.247 24.756,6.731 L81.591,22.013 C83.395,22.497 84.465,24.353 83.979,26.158 L75.685,56.788 L75.685,67.435 Z" id="Fill-1" fill="#EA352D" sketch:type="MSShapeGroup"></path>
            <path d="M67.649,69.04 L8.795,69.04 C6.926,69.04 5.412,67.525 5.412,65.656 L5.412,61.823 L71.031,61.823 L71.031,65.656 C71.031,67.526 69.517,69.04 67.649,69.04 L67.649,69.04 Z M71.031,57.651 L5.412,57.651 L5.412,52.127 L71.031,52.127 L71.031,57.651 Z M8.795,27.098 L67.649,27.098 C69.517,27.098 71.032,28.612 71.032,30.48 L71.032,47.956 L5.412,47.956 L5.412,30.48 C5.412,28.612 6.926,27.098 8.795,27.098 L8.795,27.098 Z M69.678,21.912 L17.172,21.912 L11.568,21.912 L6.088,21.912 C2.726,21.912 0,24.638 0,27.999 L0,67.912 C0,71.273 2.726,74 6.088,74 L69.678,74 C73.04,74 75.767,71.273 75.767,67.912 L75.767,67.351 L75.767,56.705 L75.767,27.999 C75.767,24.637 73.04,21.912 69.678,21.912 L69.678,21.912 Z" id="Fill-4" fill="#EA352D" sketch:type="MSShapeGroup"></path>
            <path d="M8.795,27.098 L67.649,27.098 C69.517,27.098 71.032,28.612 71.032,30.48 L71.032,47.956 L5.412,47.956 L5.412,30.48 C5.412,28.612 6.926,27.098 8.795,27.098 L8.795,27.098 Z M71.031,57.651 L5.412,57.651 L5.412,52.127 L71.031,52.127 L71.031,57.651 Z M67.649,69.04 L8.795,69.04 C6.926,69.04 5.412,67.525 5.412,65.656 L5.412,61.823 L71.031,61.823 L71.031,65.656 C71.031,67.526 69.517,69.04 67.649,69.04 L67.649,69.04 Z" id="Path" fill="#FFFFFF" sketch:type="MSShapeGroup"></path>
        </g>
    </g>
</svg>