<?xml version="1.0" encoding="UTF-8" standalone="no"?>
<svg width="74px" height="44px" viewBox="0 0 74 44" version="1.1" xmlns="http://www.w3.org/2000/svg" xmlns:xlink="http://www.w3.org/1999/xlink" xmlns:sketch="http://www.bohemiancoding.com/sketch/ns">
    <!-- Generator: Sketch 3.4.4 (17249) - http://www.bohemiancoding.com/sketch -->
    <title>free-jp</title>
    <desc>Created with Sketch.</desc>
    <defs></defs>
    <g id="Page-1" stroke="none" stroke-width="1" fill="none" fill-rule="evenodd" sketch:type="MSPage">
        <g id="free-jp" sketch:type="MSLayerGroup" fill="#EA352D">
            <g id="Page-1" sketch:type="MSShapeGroup">
                <path d="M13.42,43 L22.54,43 L22.54,34.72 L32.02,34.72 L32.02,29.02 L22.54,29.02 L22.54,26.26 L23.44,24.52 L32.02,24.52 L32.02,18.82 L26.32,18.82 L35.62,0.16 L25.9,0.16 L18.16,18.82 L10.24,0.16 L0.52,0.16 L9.7,18.82 L4,18.82 L4,24.52 L12.58,24.52 L13.42,26.26 L13.42,29.02 L4,29.02 L4,34.72 L13.42,34.72 L13.42,43 Z M51.14,21.82 C51.14,21.0999964 51.1499999,20.2300051 51.17,19.21 C51.1900001,18.1899949 51.2599994,17.1400054 51.38,16.06 C51.5000006,14.9799946 51.6999986,13.9100053 51.98,12.85 C52.2600014,11.7899947 52.6499975,10.8400042 53.15,10 C53.6500025,9.1599958 54.2899961,8.4800026 55.07,7.96 C55.8500039,7.4399974 56.8199942,7.18 57.98,7.18 C59.1400058,7.18 60.119996,7.4399974 60.92,7.96 C61.720004,8.4800026 62.3799974,9.1599958 62.9,10 C63.4200026,10.8400042 63.8099987,11.7899947 64.07,12.85 C64.3300013,13.9100053 64.5299993,14.9799946 64.67,16.06 C64.8100007,17.1400054 64.8899999,18.1899949 64.91,19.21 C64.9300001,20.2300051 64.94,21.0999964 64.94,21.82 C64.94,23.020006 64.9000004,24.4699915 64.82,26.17 C64.7399996,27.8700085 64.4900021,29.5099921 64.07,31.09 C63.6499979,32.6700079 62.9700047,34.0199944 62.03,35.14 C61.0899953,36.2600056 59.7400088,36.82 57.98,36.82 C56.2599914,36.82 54.9400046,36.2600056 54.02,35.14 C53.0999954,34.0199944 52.4300021,32.6700079 52.01,31.09 C51.5899979,29.5099921 51.3400004,27.8700085 51.26,26.17 C51.1799996,24.4699915 51.14,23.020006 51.14,21.82 L51.14,21.82 L51.14,21.82 Z M42.52,21.82 C42.52,26.020021 42.9299959,29.5299859 43.75,32.35 C44.5700041,35.1700141 45.679993,37.4199916 47.08,39.1 C48.480007,40.7800084 50.1099907,41.9799964 51.97,42.7 C53.8300093,43.4200036 55.7999896,43.78 57.88,43.78 C60.0000106,43.78 61.9899907,43.4200036 63.85,42.7 C65.7100093,41.9799964 67.3499929,40.7800084 68.77,39.1 C70.1900071,37.4199916 71.3099959,35.1700141 72.13,32.35 C72.9500041,29.5299859 73.36,26.020021 73.36,21.82 C73.36,17.7399796 72.9500041,14.3100139 72.13,11.53 C71.3099959,8.7499861 70.1900071,6.5200084 68.77,4.84 C67.3499929,3.1599916 65.7100093,1.9600036 63.85,1.24 C61.9899907,0.5199964 60.0000106,0.16 57.88,0.16 C55.7999896,0.16 53.8300093,0.5199964 51.97,1.24 C50.1099907,1.9600036 48.480007,3.1599916 47.08,4.84 C45.679993,6.5200084 44.5700041,8.7499861 43.75,11.53 C42.9299959,14.3100139 42.52,17.7399796 42.52,21.82 L42.52,21.82 L42.52,21.82 Z" id="$0"></path>
            </g>
        </g>
    </g>
</svg>