<?xml version="1.0" encoding="UTF-8" standalone="no"?>
<svg width="64px" height="64px" viewBox="0 0 64 64" version="1.1" xmlns="http://www.w3.org/2000/svg" xmlns:xlink="http://www.w3.org/1999/xlink">
    <!-- Generator: Sketch 40.2 (33826) - http://www.bohemiancoding.com/sketch -->
    <title>icon_support</title>
    <desc>Created with Sketch.</desc>
    <defs></defs>
    <g id="Page-1" stroke="none" stroke-width="1" fill="none" fill-rule="evenodd">
        <g id="replace_all_icons" transform="translate(-422.000000, -161.000000)">
            <g id="Group-3" transform="translate(422.000000, 161.000000)">
                <g id="support">
                    <g>
                        <rect id="area" opacity="0.5" x="0" y="0" width="64" height="64"></rect>
                        <path d="M57.2599897,23.4161107 C57.3163804,23.4676043 57.3725749,23.5193773 57.4285714,23.5714286 C65.6743504,32.1425559 65.9166667,44.7916667 59.2083333,53.4166667 C60.4893215,56.0381244 61.9047619,58.6190476 63,59 C62,60 59.2857143,61.9417967 59,62 C57.4285714,62 54.0193195,63.0572794 51.5416667,60.8095238 C48.6666667,62.0416667 44.8447146,63 41,63 C35.3704806,63 30.0332647,60.9783647 25.6999312,57.4130332 C27.5251819,57.7652623 29.1623686,57.9444976 30.4262295,57.9444976 C32.2171249,57.9444976 33.9833449,57.7711646 35.7089497,57.4353725 C37.3449018,57.9100766 39.0679034,58.0369084 41.0184542,58.0369084 C44.2320679,58.0369084 47.3944706,57.1829132 50.0276813,55.7846016 C50.3032048,55.4664673 50.4807728,55.4157349 51.1538347,55.7846016 C50.9373764,55.4157349 51.216412,55.5341105 51.1538347,55.7846016 C53.2795838,57.1660024 55.5964244,57.9777206 57.910755,58.0369084 C57.8878981,57.9777206 57.9893655,57.9777206 57.910755,58.0369084 C56.6026434,56.9799836 55.3765782,55.3565471 54.5322949,53.5322949 C54.1927911,52.659275 54.260436,52.236505 54.5322949,52.4061415 C59.0786281,46.9296373 60.1664792,39.7481772 57.7441681,33.7863405 C57.9134318,32.5211462 58,31.236778 58,29.9388846 C58,27.716239 57.7471523,25.5322142 57.2599897,23.4161107 Z M27.5737705,0 C20.2079448,0 13.2758545,2.9056857 7.87822014,8.00160371 C-2.00731105,18.4381113 -2.20590164,35.8471846 5.5147541,43.6887563 C4.41180328,47.0494298 0.33052478,51.9750339 0,52.6505524 C0.656193453,54.1011454 4.34741483,55.6214389 5.5147541,56.011226 C7.72065574,56.011226 12.132459,54.8910015 15.4413115,53.3440248 C19.9672131,55.0982408 24.7213115,56.011226 27.5737705,56.011226 C34.9211902,56.011226 41.8532805,53.0937286 47.2693208,48.0096223 C52.2746781,42.510418 55.147541,35.4824384 55.147541,28.005613 C55.147541,20.5287876 52.2863091,13.4889962 47.2693208,8.00160371 C41.8649116,2.9056857 34.9328212,0 27.5737705,0 Z M27.5,50.7047608 C23.4870971,50.7047608 19.5381422,49.6216588 15.5882353,48.0162455 C15.1140457,47.3803883 14.7656085,47.5305212 14.2647059,48.0162455 C12.189285,49.6002112 9.29620045,50.6296943 6.32352941,50.7047608 C8.0397148,49.364288 9.57072672,47.3053218 10.2941176,43.9834725 C11.0489451,43.8844352 10.9644755,43.348246 10.2941176,42.6392148 C2.77092207,33.9542126 3.18271148,20.2063235 11.6176471,11.7212884 C15.8425962,7.36995592 21.4915023,5 27.5,5 C33.5073061,5 39.1562122,7.36995592 43.3823529,11.7212884 C47.6665267,16.0133246 50,21.7505482 50,27.8523804 C50,33.9542126 49.036571,38.299972 43.3823529,43.9834725 C37.7861678,49.7262692 33.5073061,50.7047608 27.5,50.7047608 Z M24.2837195,33.5240499 C24.2920542,31.7360125 24.8265974,30.477785 25.6478864,29.4958552 C25.9228713,29.1670844 30.8329548,23.4602653 30.8243797,21.5739492 C30.813243,19.1241506 28.6360338,17.5048073 27.5447369,17.5048073 C26.6474484,17.5048073 24.2401837,18.841908 24.2837195,21.5420748 C24.3272554,24.2422417 19.0011992,24.8532854 19.016426,21.5420748 C19.0316529,18.2308643 19.8381959,17.2271638 21.3089509,15.7950734 C22.7797059,14.362983 25.0227391,13.5329012 27.5448474,13.5329012 C33.847714,13.5329012 36.0482124,19.0985622 36.0730804,21.5739492 C36.1173184,25.9774527 29.5042906,29.7694725 29.4882623,33.5240499 C29.472234,37.2786273 24.2677049,36.9596557 24.2837195,33.5240499 Z M26.8818235,42.8769987 C28.3321638,42.8769987 29.5078969,41.682852 29.5078969,40.2097974 C29.5078969,38.7367429 28.3321638,37.5425962 26.8818235,37.5425962 C25.4314833,37.5425962 24.2557502,38.7367429 24.2557502,40.2097974 C24.2557502,41.682852 25.4314833,42.8769987 26.8818235,42.8769987 Z" id="Combined-Shape" fill="#E3463D"></path>
                    </g>
                </g>
            </g>
        </g>
    </g>
</svg>