<?xml version="1.0" encoding="UTF-8" standalone="no"?>
<svg width="80px" height="65px" viewBox="0 0 80 65" version="1.1" xmlns="http://www.w3.org/2000/svg" xmlns:xlink="http://www.w3.org/1999/xlink" xmlns:sketch="http://www.bohemiancoding.com/sketch/ns">
    <!-- Generator: Sketch 3.4.4 (17249) - http://www.bohemiancoding.com/sketch -->
    <title>gray-logo</title>
    <desc>Created with Sketch.</desc>
    <defs></defs>
    <g id="Page-1" stroke="none" stroke-width="1" fill="none" fill-rule="evenodd" sketch:type="MSPage">
        <g id="login" sketch:type="MSArtboardGroup" transform="translate(-318.000000, -617.000000)" fill="#CECECE">
            <g id="Copyright-©-Mercari,-+-Shape-+-icon" sketch:type="MSLayerGroup" transform="translate(266.000000, 617.000000)">
                <g id="gray-logo" transform="translate(52.000000, 0.000000)" sketch:type="MSShapeGroup">
                    <path d="M36.0154909,20.9601678 C36.0154909,19.5830746 37.1289455,18.467261 38.5031273,18.467261 C39.8776727,18.467261 40.9911273,19.5830746 40.9911273,20.9601678 C40.9911273,22.3376254 39.8776727,23.453439 38.5031273,23.453439 C37.1289455,23.453439 36.0154909,22.3376254 36.0154909,20.9601678" id="Fill-1"></path>
                    <g id="Group-5" transform="translate(21.000000, 0.000000)">
                        <path d="M16.8894545,36.1485331 L15.2567273,35.3504822 L15.2567273,31.7297364 C15.2567273,31.3609568 15.1807273,31.06105 15.0287273,30.8303805 C14.8767273,30.5993466 14.6207273,30.3960076 14.2603636,30.2199992 C13.9243636,30.0560161 13.6763636,30.0049992 13.5163636,30.0669483 C13.356,30.1288975 13.268,30.3205754 13.252,30.6416178 L13.252,34.3709568 L11.7156364,33.6199144 L11.7156364,29.9988042 C11.7156364,29.6300246 11.6374545,29.3290246 11.4814545,29.0965331 C11.3254545,28.8636771 11.0672727,28.6596093 10.7072727,28.4836008 C10.3469091,28.3075924 10.0909091,28.2605839 9.93890909,28.3425754 C9.78690909,28.4245669 9.71090909,28.6501347 9.71090909,29.0189144 L9.71090909,32.6400246 L8.11418182,31.8594653 L8.11418182,28.0703636 C8.11418182,27.3484737 8.34654545,26.9308636 8.81163636,26.8171686 C9.27636364,26.7034737 9.91309091,26.8444992 10.7229091,27.2398805 C11.1236364,27.4359314 11.472,27.6604059 11.7683636,27.9136686 C12.0650909,28.1665669 12.3174545,28.4325839 12.5258182,28.7106263 C12.7341818,28.6439398 12.9825455,28.6253551 13.2712727,28.6541432 C13.5596364,28.6825669 13.8963636,28.7911602 14.2807273,28.9791941 C15.0821818,29.3709314 15.7174545,29.8515839 16.1861818,30.4215161 C16.6549091,30.9918127 16.8894545,31.6375415 16.8894545,32.3590669 L16.8894545,36.1485331 Z M25.6585455,4.65066864 L20.6534545,11.5842364 C21.6043636,10.7938381 22.8385455,10.3146432 24.1861818,10.3146432 C27.1847273,10.3146432 29.624,12.680372 29.624,15.5887025 C29.624,16.2253212 29.5072727,16.8364314 29.2930909,17.4019907 L33.8087273,19.6314314 L19.8272727,26.5340246 L5.84581818,19.6314314 L19.5232727,12.8786093 C19.5858182,12.7776686 19.6523636,12.6792788 19.7218182,12.582711 L18.8381818,11.3586686 C17.6003636,12.2591178 16.0614545,12.7937025 14.3952727,12.7937025 C11.1349091,12.7937025 8.36218182,10.7471941 7.38036364,7.9164822 L0,11.5598212 L5.83163636,19.6383551 L5.83163636,36.0909568 L19.8272727,43.0001093 L33.8225455,36.0909568 L33.8225455,19.6383551 L39.6541818,11.5598212 L25.6585455,4.65066864 Z" id="Fill-3"></path>
                    </g>
                    <path d="M29.7417091,5.65792542 C29.7417091,2.68181525 32.2733455,0.269077966 35.3955273,0.269077966 C38.5173455,0.269077966 41.0482545,2.68181525 41.0482545,5.65792542 C41.0482545,8.63476441 38.5173455,11.0467729 35.3955273,11.0467729 C32.2733455,11.0467729 29.7417091,8.63476441 29.7417091,5.65792542" id="Fill-6"></path>
                    <path d="M41.1044,15.5885932 C41.1044,13.4262034 42.9313091,11.6730424 45.1862182,11.6730424 C47.4411273,11.6730424 49.2684,13.4262034 49.2684,15.5885932 C49.2684,17.7509831 47.4411273,19.5041441 45.1862182,19.5041441 C42.9313091,19.5041441 41.1044,17.7509831 41.1044,15.5885932" id="Fill-8"></path>
                    <path d="M13.4960687,64.4585063 L13.4960687,57.8396529 C13.4960687,57.164704 13.350226,56.685708 13.069759,56.4026649 C12.7780734,56.1196219 12.2956703,55.9781004 11.6225496,55.9781004 C10.9830851,55.9781004 10.5231193,56.1087356 10.220215,56.3591199 C9.91731072,56.6203904 9.74903053,57.044955 9.72659316,57.6437 L9.72659316,64.4585063 L6.83217441,64.4585063 L6.83217441,57.8396529 C6.83217441,57.164704 6.6863316,56.685708 6.39464605,56.4026649 C6.10296043,56.1196219 5.60933861,55.9781004 4.93621798,55.9781004 C4.25187868,55.9781004 3.76947557,56.1196219 3.48900861,56.4026649 C3.19732302,56.685708 3.06269888,57.164704 3.06269888,57.8396529 L3.06269888,64.4585063 L0.044874709,64.4585063 L0.044874709,57.5348372 C0.044874709,56.2175983 0.482403123,55.2487201 1.35745995,54.6173163 C2.23251678,53.9967988 3.43291524,53.681097 4.95865533,53.681097 C5.71030672,53.681097 6.37220867,53.7790734 6.93314253,53.9750263 C7.4940764,54.1709792 7.96526082,54.4322497 8.35791456,54.7588379 C8.75056824,54.4540223 9.22175267,54.1927517 9.76024922,53.9859126 C10.3099644,53.7790734 10.9382103,53.681097 11.6674244,53.681097 C13.1819458,53.681097 14.3823442,53.9967988 15.2574011,54.6173163 C16.1436766,55.2378338 16.581205,56.2067121 16.581205,57.5348372 L16.581205,64.4585063 L13.4960687,64.4585063 L13.4960687,64.4585063 L13.4960687,64.4585063 L13.4960687,64.4585063 Z M30.0884924,64.4149612 C29.9426496,64.44762 29.7519321,64.4802788 29.5499959,64.5129376 C29.336841,64.5455964 29.0788114,64.5782552 28.7534698,64.610914 C28.4393468,64.6435729 28.0579118,64.6653454 27.6203834,64.6871179 C27.182855,64.7088905 26.6667958,64.7197768 26.0834246,64.7197768 C25.0513063,64.7197768 24.1201561,64.6218004 23.289974,64.4258474 C22.4485732,64.2298945 21.7305778,63.9141927 21.1135506,63.4678555 C20.4965233,63.0324046 20.0253389,62.4445459 19.6999973,61.726052 C19.3634369,61.007558 19.2063755,60.12577 19.2063755,59.0915742 C19.2063755,58.3839665 19.3522183,57.7090176 19.6326852,57.0558413 C19.9243708,56.4026649 20.3282432,55.8256926 20.8443024,55.324924 C21.3603615,54.8241555 21.9886074,54.4322497 22.7178214,54.1274341 C23.4470354,53.8226185 24.2547802,53.681097 25.1410557,53.681097 C25.825395,53.681097 26.4648596,53.7790734 27.0818869,53.96414 C27.6989141,54.1600929 28.2261919,54.443136 28.6861577,54.8459281 C29.1461235,55.2378338 29.5163398,55.7386024 29.7855881,56.3482336 C30.0548363,56.9578648 30.1894605,57.687245 30.1894605,58.5363743 L30.1894605,58.9935977 C30.1894605,59.167778 30.1782418,59.3419584 30.1670231,59.4943662 L22.1007942,59.4943662 C22.1456689,60.0386798 22.2690743,60.4850169 22.4822292,60.8333777 C22.6953841,61.1817384 22.975851,61.4647815 23.3460674,61.6716206 C23.705065,61.8784598 24.1425934,62.0199813 24.6586526,62.0961852 C25.1747118,62.1723891 25.7468643,62.2159342 26.3751102,62.2159342 C27.3511351,62.2159342 28.1588799,62.1832754 28.7759071,62.1179577 C29.3929344,62.0526401 29.8304628,61.9873225 30.0884924,61.9111186 L30.0884924,64.4149612 L30.0884924,64.4149612 L30.0884924,64.4149612 L30.0884924,64.4149612 Z M27.0931055,57.5783823 C27.0931055,57.0993864 26.9248254,56.685708 26.5994838,56.3373473 C26.2629234,55.9889866 25.758083,55.8256926 25.0849623,55.8256926 C24.4118417,55.8256926 23.8396892,55.9781004 23.390942,56.2938023 C22.942195,56.6095041 22.6056346,57.0340687 22.3924798,57.5783823 L27.0931055,57.5783823 L27.0931055,57.5783823 L27.0931055,57.5783823 L27.0931055,57.5783823 Z M32.8258496,64.4585063 L32.8258496,58.4275116 C32.8258496,56.9143198 33.297034,55.7494887 34.2506216,54.9112457 C35.2042091,54.083889 36.5280132,53.6702107 38.2108148,53.6702107 C38.4576256,53.6702107 38.6595619,53.6702107 38.8502795,53.681097 C39.0297781,53.6919832 39.1980584,53.7028695 39.3326824,53.7137558 C39.4785251,53.7246421 39.6131494,53.7464146 39.7477735,53.7681871 C39.8823976,53.7899597 40.0394592,53.8117322 40.1965205,53.8226185 L40.1965205,56.1740533 C39.9272724,56.1305081 39.6355867,56.0978493 39.3326824,56.0651905 C39.0297781,56.0325317 38.76053,56.0216455 38.5137189,56.0216455 C37.6947557,56.0216455 37.0552911,56.2175983 36.5841064,56.6095041 C36.1129221,57.00141 35.87733,57.5783823 35.87733,58.3404214 L35.87733,64.4585063 L32.8258496,64.4585063 L32.8258496,64.4585063 L32.8258496,64.4585063 L32.8258496,64.4585063 Z M50.6523277,64.5455964 C50.3382047,64.5891415 49.9792071,64.6326866 49.5753347,64.6653454 C49.1714623,64.6980042 48.7563712,64.7197768 48.3188428,64.7197768 C47.2867247,64.7197768 46.3555744,64.6218004 45.5253922,64.4367337 C44.6839914,64.2516671 43.9659963,63.9468514 43.348969,63.5222868 C42.7319417,63.1086085 42.2607573,62.5642949 41.9354154,61.9002323 C41.5988551,61.2361697 41.4417938,60.4305856 41.4417938,59.4943662 C41.4417938,58.5146017 41.6100738,57.6545863 41.9466344,56.9360923 C42.2831946,56.2067121 42.7543789,55.6079671 43.3601876,55.1180849 C43.9659963,54.6390889 44.6839914,54.2798419 45.5253922,54.0403439 C46.366793,53.8008459 47.2755061,53.6919832 48.2739682,53.6919832 C48.7114966,53.6919832 49.1265877,53.7137558 49.5192415,53.7464146 C49.911895,53.7790734 50.2708928,53.8226185 50.5850158,53.8661636 L50.5850158,56.2175983 C50.3157675,56.163167 50.0240817,56.1196219 49.7099588,56.0869631 C49.3958358,56.0543042 49.0144009,56.043418 48.5656539,56.043418 C47.2418498,56.043418 46.232169,56.3046885 45.5366109,56.8381159 C44.8522717,57.3606569 44.5044928,58.2206724 44.5044928,59.407276 C44.5044928,60.4632444 44.8522717,61.2252834 45.5478295,61.6825068 C46.2433877,62.1397303 47.2642871,62.3792283 48.6105285,62.3792283 C49.0480569,62.3792283 49.429492,62.368342 49.7660523,62.3356832 C50.1026126,62.3030244 50.3942983,62.2594793 50.6523277,62.2050479 L50.6523277,64.5455964 L50.6523277,64.5455964 L50.6523277,64.5455964 L50.6523277,64.5455964 Z M63.9240232,64.4585063 L61.2091029,64.4585063 L61.2091029,62.8799968 C60.9847295,63.2719026 60.5472011,63.8379887 59.9526114,64.1863495 C59.5263016,64.44762 58.8083062,64.7197768 58.0342175,64.7197768 C57.2601286,64.7197768 56.5645707,64.6000277 55.9363248,64.3605298 C55.3080788,64.1210318 54.7695824,63.7726711 54.3208354,63.3263339 C53.872088,62.8799968 53.5130904,62.3356832 53.2662796,61.7042794 C53.0194685,61.0619893 52.8960631,60.3543817 52.8960631,59.5596839 C52.8960631,58.7214409 53.0194685,57.9485156 53.2662796,57.2300216 C53.5130904,56.5115276 53.8833069,55.8910102 54.3544913,55.3684691 C54.8256756,54.8459281 55.4202656,54.443136 56.1046048,54.1383204 C56.8001629,53.8335048 57.5854702,53.6919832 58.4605273,53.6919832 C59.2907092,53.6919832 60.0423605,53.8008459 60.7154813,54.0294577 C61.3886021,54.2580694 61.9607542,54.5955438 62.4319389,55.0527672 C62.9031231,55.5099906 63.2733398,56.0760768 63.5313692,56.7727982 C63.7893991,57.4586334 63.9128043,58.2642175 63.9128043,59.1895506 L63.9128043,64.4585063 L63.9240232,64.4585063 L63.9240232,64.4585063 L63.9240232,64.4585063 L63.9240232,64.4585063 Z M56.6543202,56.8272296 C56.2055729,57.3497706 55.9699808,58.1444684 55.9699808,59.2004369 C55.9699808,60.2564052 56.1943543,60.9422404 56.6543202,61.4647815 C57.1030672,61.9873225 57.7200946,62.1506166 58.4941832,62.1506166 C59.1673038,62.1506166 59.8965178,61.5409854 60.1994222,61.2252834 C60.7379187,60.6591973 61.0071668,59.9080446 61.0071668,59.2004369 C61.0071668,58.1444684 60.7827932,57.3497706 60.3228275,56.8272296 C59.8740805,56.3046885 59.2570533,56.0325317 58.4829646,56.0325317 C57.7200946,56.0325317 57.1142859,56.2938023 56.6543202,56.8272296 L56.6543202,56.8272296 L56.6543202,56.8272296 L56.6543202,56.8272296 Z M66.7623481,64.4585063 L66.7623481,58.4275116 C66.7623481,56.9143198 67.2335328,55.7494887 68.1871206,54.9112457 C69.1407078,54.083889 70.4645118,53.6702107 72.1473136,53.6702107 C72.394124,53.6702107 72.5960605,53.6702107 72.786778,53.681097 C72.9662766,53.6919832 73.1345569,53.7028695 73.2691811,53.7137558 C73.4150241,53.7246421 73.5496482,53.7464146 73.6842718,53.7681871 C73.8188965,53.7899597 73.9759579,53.8117322 74.1330192,53.8226185 L74.1330192,56.1740533 C73.863771,56.1305081 73.5720855,56.0978493 73.2691811,56.0651905 C72.9662766,56.0325317 72.6970284,56.0216455 72.450218,56.0216455 C71.6312544,56.0216455 70.9917893,56.2175983 70.5206052,56.6095041 C70.0494205,57.00141 69.8138284,57.5783823 69.8138284,58.3404214 L69.8138284,64.4585063 L66.7623481,64.4585063 L66.7623481,64.4585063 L66.7623481,64.4585063 L66.7623481,64.4585063 Z M77.7903078,52.7122187 C77.2742492,52.7122187 76.8591579,52.5380384 76.5450345,52.1787914 C76.2309118,51.8195444 76.0738504,51.3840936 76.0738504,50.8724388 C76.0738504,50.360784 76.2309118,49.9362194 76.5450345,49.5878587 C76.8591579,49.239498 77.2854675,49.0762039 77.8127456,49.0762039 C78.3288043,49.0762039 78.7438956,49.2503843 79.0580189,49.5878587 C79.3721417,49.9362194 79.5292031,50.360784 79.5292031,50.8724388 C79.5292031,51.3840936 79.3721417,51.8195444 79.0580189,52.1787914 C78.7438956,52.5380384 78.317586,52.7122187 77.7903078,52.7122187 L77.7903078,52.7122187 L77.7903078,52.7122187 L77.7903078,52.7122187 Z M76.2309118,64.4585063 L76.2309118,53.9532538 L79.3160482,53.9532538 L79.3160482,64.4585063 L76.2309118,64.4585063 L76.2309118,64.4585063 L76.2309118,64.4585063 L76.2309118,64.4585063 Z" id="Shape"></path>
                </g>
            </g>
        </g>
    </g>
</svg>