<?xml version="1.0" encoding="UTF-8" standalone="no"?>
<svg width="124px" height="33px" viewBox="0 0 124 33" version="1.1" xmlns="http://www.w3.org/2000/svg" xmlns:xlink="http://www.w3.org/1999/xlink" xmlns:sketch="http://www.bohemiancoding.com/sketch/ns">
    <!-- Generator: Sketch 3.4.4 (17249) - http://www.bohemiancoding.com/sketch -->
    <title>logo_white</title>
    <desc>Created with Sketch.</desc>
    <defs></defs>
    <g id="Page-1" stroke="none" stroke-width="1" fill="none" fill-rule="evenodd" sketch:type="MSPage">
        <g id="logo_white" sketch:type="MSLayerGroup">
            <g id="Page-1" sketch:type="MSShapeGroup">
                <g id="jp">
                    <g id="mercari_logo_horizontal">
                        <g id="Group">
                            <path d="M15.6631579,9.3 L4.68137652,14.6875 L4.68137652,27.5125 L15.6631579,22.1375 L26.6323887,27.5125 L26.6323887,14.6875 L15.6631579,9.3 L15.6631579,9.3 Z" id="Shape" fill="#AF1C2E"></path>
                            <path d="M20.2315789,3.0125 L15.6631579,9.3 L26.6198381,14.6875 L15.6631579,20.0625 L4.69392713,14.6875 L15.6631579,9.3 L11.0821862,3.0125 L0.112955466,8.4 L4.68137652,14.6875 L4.68137652,27.5125 L15.6631579,32.8875 L26.6323887,27.5125 L26.6323887,14.6875 L31.2008097,8.4 L20.2315789,3.0125 L20.2315789,3.0125 Z" id="Shape" fill="#F9401C"></path>
                            <path d="M12.2368421,14.7 C12.2368421,13.675 13.0777328,12.8375 14.1068826,12.8375 C15.148583,12.8375 15.9769231,13.675 15.9769231,14.7 C15.9769231,15.7375 15.1360324,16.5625 14.1068826,16.5625 C13.0777328,16.575 12.2368421,15.7375 12.2368421,14.7 L12.2368421,14.7 L12.2368421,14.7 Z" id="Shape" fill="#60C9F8"></path>
                            <path d="M16.3534413,10.4875 C16.3534413,8.8 17.7842105,7.4375 19.5538462,7.4375 C21.3234818,7.4375 22.754251,8.8 22.754251,10.4875 C22.754251,12.175 21.3234818,13.5375 19.5538462,13.5375 C17.7842105,13.5375 16.3534413,12.175 16.3534413,10.4875 L16.3534413,10.4875 L16.3534413,10.4875 Z" id="Shape" fill="#60C9F8"></path>
                            <path d="M7.76882591,4.05 C7.76882591,1.8125 9.68906883,0 12.048583,0 C14.4080972,0 16.3283401,1.8125 16.3283401,4.05 C16.3283401,6.2875 14.4080972,8.1 12.048583,8.1 C9.68906883,8.1125 7.76882591,6.3 7.76882591,4.05 L7.76882591,4.05 L7.76882591,4.05 Z" id="Shape" fill="#60C9F8"></path>
                            <path d="M13.3538462,27.55 L12.0736842,26.925 L12.0736842,24.1 C12.0736842,23.8125 12.0109312,23.575 11.8979757,23.4 C11.7850202,23.225 11.5842105,23.0625 11.2955466,22.925 C11.0319838,22.8 10.8437247,22.7625 10.7182186,22.8 C10.5927126,22.85 10.5299595,23 10.5174089,23.25 L10.5174089,26.15 L9.31255061,25.5625 L9.31255061,22.7375 C9.31255061,22.45 9.24979757,22.2125 9.1242915,22.0375 C8.99878543,21.85 8.79797571,21.7 8.52186235,21.5625 C8.24574899,21.425 8.04493927,21.3875 7.9194332,21.45 C7.79392713,21.5125 7.7437247,21.6875 7.7437247,21.975 L7.7437247,24.8 L6.48866397,24.1875 L6.48866397,21.2375 C6.48866397,20.675 6.67692308,20.35 7.04089069,20.2625 C7.4048583,20.175 7.90688259,20.2875 8.53441296,20.5875 C8.84817814,20.7375 9.1242915,20.9125 9.35020243,21.1125 C9.58866397,21.3125 9.77692308,21.5125 9.94008097,21.7375 C10.1032389,21.6875 10.3040486,21.675 10.5299595,21.6875 C10.7558704,21.7125 11.0194332,21.8 11.3206478,21.9375 C11.9481781,22.2375 12.4502024,22.6125 12.81417,23.0625 C13.1781377,23.5125 13.3663968,24.0125 13.3663968,24.575 L13.3663968,27.55 L13.3538462,27.55 L13.3538462,27.55 Z" id="Shape" fill="#FFFFFF"></path>
                        </g>
                        <g id="Group" transform="translate(35.000000, 6.000000)" fill="#FFFFFF">
                            <path d="M15.1145749,18.375 L15.1145749,10.775 C15.1145749,10 14.951417,9.45 14.6376518,9.125 C14.311336,8.8 13.7716599,8.6375 13.0186235,8.6375 C12.3032389,8.6375 11.788664,8.7875 11.4497976,9.075 C11.1109312,9.375 10.9226721,9.8625 10.8975709,10.55 L10.8975709,18.375 L7.65951417,18.375 L7.65951417,10.775 C7.65951417,10 7.49635628,9.45 7.17004049,9.125 C6.8437247,8.8 6.29149798,8.6375 5.53846154,8.6375 C4.77287449,8.6375 4.23319838,8.8 3.9194332,9.125 C3.59311741,9.45 3.44251012,10 3.44251012,10.775 L3.44251012,18.375 L0.0663967611,18.375 L0.0663967611,10.425 C0.0663967611,8.9125 0.555870445,7.8 1.53481781,7.075 C2.51376518,6.3625 3.85668016,6 5.56356275,6 C6.40445344,6 7.14493927,6.1125 7.77246964,6.3375 C8.4,6.5625 8.92712551,6.8625 9.36639676,7.2375 C9.80566802,6.8875 10.3327935,6.5875 10.9352227,6.35 C11.5502024,6.1125 12.2530364,6 13.0688259,6 C14.7631579,6 16.1060729,6.3625 17.0850202,7.075 C18.0765182,7.7875 18.5659919,8.9 18.5659919,10.425 L18.5659919,18.375 L15.1145749,18.375 L15.1145749,18.375 L15.1145749,18.375 Z" id="Shape"></path>
                            <path d="M33.6769231,18.325 C33.5137652,18.3625 33.3004049,18.4 33.0744939,18.4375 C32.8360324,18.475 32.5473684,18.5125 32.1834008,18.55 C31.8319838,18.5875 31.4052632,18.6125 30.9157895,18.6375 C30.4263158,18.6625 29.8489879,18.675 29.1963563,18.675 C28.0417004,18.675 27,18.5625 26.0712551,18.3375 C25.1299595,18.1125 24.3267206,17.75 23.6364372,17.2375 C22.9461538,16.7375 22.4190283,16.0625 22.0550607,15.2375 C21.6785425,14.4125 21.502834,13.4 21.502834,12.2125 C21.502834,11.4 21.6659919,10.625 21.9797571,9.875 C22.3060729,9.125 22.7578947,8.4625 23.3352227,7.8875 C23.9125506,7.3125 24.6153846,6.8625 25.4311741,6.5125 C26.2469636,6.1625 27.1506073,6 28.1421053,6 C28.9076923,6 29.6230769,6.1125 30.3133603,6.325 C31.0036437,6.55 31.5935223,6.875 32.1080972,7.3375 C32.6226721,7.7875 33.0368421,8.3625 33.3380567,9.0625 C33.6392713,9.7625 33.7898785,10.6 33.7898785,11.575 L33.7898785,12.1 C33.7898785,12.3 33.7773279,12.5 33.7647773,12.675 L24.7408907,12.675 C24.7910931,13.3 24.9291498,13.8125 25.1676113,14.2125 C25.4060729,14.6125 25.7198381,14.9375 26.1340081,15.175 C26.5356275,15.4125 27.0251012,15.575 27.6024291,15.6625 C28.1797571,15.75 28.8198381,15.8 29.5226721,15.8 C30.6145749,15.8 31.5182186,15.7625 32.208502,15.6875 C32.8987854,15.6125 33.3882591,15.5375 33.6769231,15.45 L33.6769231,18.325 L33.6769231,18.325 L33.6769231,18.325 Z M30.3259109,10.475 C30.3259109,9.925 30.1376518,9.45 29.7736842,9.05 C29.397166,8.65 28.8323887,8.4625 28.0793522,8.4625 C27.3263158,8.4625 26.6862348,8.6375 26.1842105,9 C25.6821862,9.3625 25.305668,9.85 25.0672065,10.475 L30.3259109,10.475 L30.3259109,10.475 L30.3259109,10.475 Z" id="Shape"></path>
                            <path d="M36.7392713,18.375 L36.7392713,11.45 C36.7392713,9.7125 37.2663968,8.375 38.3331984,7.4125 C39.4,6.4625 40.8809717,5.9875 42.7635628,5.9875 C43.0396761,5.9875 43.265587,5.9875 43.4789474,6 C43.6797571,6.0125 43.8680162,6.025 44.0186235,6.0375 C44.1817814,6.05 44.3323887,6.075 44.482996,6.1 C44.6336032,6.125 44.8093117,6.15 44.9850202,6.1625 L44.9850202,8.8625 C44.6838057,8.8125 44.3574899,8.775 44.0186235,8.7375 C43.6797571,8.7 43.3785425,8.6875 43.1024291,8.6875 C42.1862348,8.6875 41.4708502,8.9125 40.9437247,9.3625 C40.4165992,9.8125 40.1530364,10.475 40.1530364,11.35 L40.1530364,18.375 L36.7392713,18.375 L36.7392713,18.375 L36.7392713,18.375 Z" id="Shape"></path>
                            <path d="M56.6821862,18.475 C56.3307692,18.525 55.9291498,18.575 55.4773279,18.6125 C55.0255061,18.65 54.5611336,18.675 54.0716599,18.675 C52.917004,18.675 51.8753036,18.5625 50.9465587,18.35 C50.0052632,18.1375 49.2020243,17.7875 48.5117409,17.3 C47.8214575,16.825 47.294332,16.2 46.9303644,15.4375 C46.5538462,14.675 46.3781377,13.75 46.3781377,12.675 C46.3781377,11.55 46.5663968,10.5625 46.942915,9.7375 C47.3194332,8.9 47.8465587,8.2125 48.5242915,7.65 C49.2020243,7.1 50.0052632,6.6875 50.9465587,6.4125 C51.8878543,6.1375 52.9044534,6.0125 54.0214575,6.0125 C54.5109312,6.0125 54.9753036,6.0375 55.4145749,6.075 C55.8538462,6.1125 56.2554656,6.1625 56.6068826,6.2125 L56.6068826,8.9125 C56.305668,8.85 55.9793522,8.8 55.6279352,8.7625 C55.2765182,8.725 54.8497976,8.7125 54.3477733,8.7125 C52.8668016,8.7125 51.737247,9.0125 50.9591093,9.625 C50.1935223,10.225 49.8044534,11.2125 49.8044534,12.575 C49.8044534,13.7875 50.1935223,14.6625 50.9716599,15.1875 C51.7497976,15.7125 52.8919028,15.9875 54.3979757,15.9875 C54.8874494,15.9875 55.31417,15.975 55.6906883,15.9375 C56.0672065,15.9 56.3935223,15.85 56.6821862,15.7875 L56.6821862,18.475 L56.6821862,18.475 L56.6821862,18.475 Z" id="Shape"></path>
                            <path d="M71.5295547,18.375 L68.4923077,18.375 L68.4923077,16.5625 C68.2412955,17.0125 67.7518219,17.6625 67.0866397,18.0625 C66.6097166,18.3625 65.8064777,18.675 64.9404858,18.675 C64.0744939,18.675 63.2963563,18.5375 62.5935223,18.2625 C61.8906883,17.9875 61.2882591,17.5875 60.7862348,17.075 C60.2842105,16.5625 59.8825911,15.9375 59.6064777,15.2125 C59.3303644,14.475 59.1923077,13.6625 59.1923077,12.75 C59.1923077,11.7875 59.3303644,10.9 59.6064777,10.075 C59.8825911,9.25 60.2967611,8.5375 60.8238866,7.9375 C61.3510121,7.3375 62.0161943,6.875 62.7817814,6.525 C63.559919,6.175 64.4384615,6.0125 65.4174089,6.0125 C66.3461538,6.0125 67.1870445,6.1375 67.940081,6.4 C68.6931174,6.6625 69.3331984,7.05 69.8603239,7.575 C70.3874494,8.1 70.8016194,8.75 71.0902834,9.55 C71.3789474,10.3375 71.517004,11.2625 71.517004,12.325 L71.517004,18.375 L71.5295547,18.375 L71.5295547,18.375 Z M63.3967611,9.6125 C62.8947368,10.2125 62.6311741,11.125 62.6311741,12.3375 C62.6311741,13.55 62.8821862,14.3375 63.3967611,14.9375 C63.8987854,15.5375 64.5890688,15.725 65.4550607,15.725 C66.2080972,15.725 67.0238866,15.025 67.362753,14.6625 C67.9651822,14.0125 68.2663968,13.15 68.2663968,12.3375 C68.2663968,11.125 68.0153846,10.2125 67.5008097,9.6125 C66.9987854,9.0125 66.308502,8.7 65.4425101,8.7 C64.5890688,8.7 63.911336,9 63.3967611,9.6125 L63.3967611,9.6125 L63.3967611,9.6125 Z" id="Shape"></path>
                            <path d="M74.7048583,18.375 L74.7048583,11.45 C74.7048583,9.7125 75.2319838,8.375 76.2987854,7.4125 C77.365587,6.4625 78.8465587,5.9875 80.7291498,5.9875 C81.0052632,5.9875 81.2311741,5.9875 81.4445344,6 C81.6453441,6.0125 81.8336032,6.025 81.9842105,6.0375 C82.1473684,6.05 82.2979757,6.075 82.448583,6.1 C82.5991903,6.125 82.7748988,6.15 82.9506073,6.1625 L82.9506073,8.8625 C82.6493927,8.8125 82.3230769,8.775 81.9842105,8.7375 C81.6453441,8.7 81.3441296,8.6875 81.0680162,8.6875 C80.1518219,8.6875 79.4364372,8.9125 78.9093117,9.3625 C78.3821862,9.8125 78.1186235,10.475 78.1186235,11.35 L78.1186235,18.375 L74.7048583,18.375 L74.7048583,18.375 L74.7048583,18.375 Z" id="Shape"></path>
                            <path d="M87.0421053,4.8875 C86.4647773,4.8875 86.0004049,4.6875 85.6489879,4.275 C85.2975709,3.8625 85.1218623,3.3625 85.1218623,2.775 C85.1218623,2.1875 85.2975709,1.7 85.6489879,1.3 C86.0004049,0.9 86.4773279,0.7125 87.0672065,0.7125 C87.6445344,0.7125 88.1089069,0.9125 88.4603239,1.3 C88.8117409,1.7 88.9874494,2.1875 88.9874494,2.775 C88.9874494,3.3625 88.8117409,3.8625 88.4603239,4.275 C88.1089069,4.6875 87.6319838,4.8875 87.0421053,4.8875 L87.0421053,4.8875 L87.0421053,4.8875 Z M85.2975709,18.375 L85.2975709,6.3125 L88.7489879,6.3125 L88.7489879,18.375 L85.2975709,18.375 L85.2975709,18.375 L85.2975709,18.375 Z" id="Shape"></path>
                        </g>
                    </g>
                </g>
            </g>
        </g>
    </g>
</svg>