<?xml version="1.0" encoding="UTF-8" standalone="no"?>
<svg width="78px" height="85px" viewBox="0 0 78 85" version="1.1" xmlns="http://www.w3.org/2000/svg" xmlns:xlink="http://www.w3.org/1999/xlink" xmlns:sketch="http://www.bohemiancoding.com/sketch/ns">
    <!-- Generator: Sketch 3.4.4 (17249) - http://www.bohemiancoding.com/sketch -->
    <title>logo-gray-icon</title>
    <desc>Created with Sketch.</desc>
    <defs></defs>
    <g id="Page-1" stroke="none" stroke-width="1" fill="none" fill-rule="evenodd" sketch:type="MSPage">
        <g id="ボツかもparts" sketch:type="MSArtboardGroup" transform="translate(-1353.000000, -319.000000)" fill="#EEEEEE">
            <g id="Group-+-出品中の商品がありません-+-メルカリでは3分で簡単に出品できます。" sketch:type="MSLayerGroup" transform="translate(1267.000000, 319.000000)">
                <g id="logo-gray-icon" transform="translate(86.000000, 0.000000)" sketch:type="MSShapeGroup">
                    <path d="M29.2802073,41.4328898 C29.2802073,38.7107288 31.4514436,36.5050508 34.1310982,36.5050508 C36.8114618,36.5050508 38.9826982,38.7107288 38.9826982,41.4328898 C38.9826982,44.1557712 36.8114618,46.3614492 34.1310982,46.3614492 C31.4514436,46.3614492 29.2802073,44.1557712 29.2802073,41.4328898" id="Fill-1"></path>
                    <path d="M32.9344364,71.4564025 L29.7506182,69.8788602 L29.7506182,62.721572 C29.7506182,61.992589 29.6024182,61.39975 29.3060182,60.9437754 C29.0096182,60.4870805 28.5104182,60.0851314 27.8077091,59.7372076 C27.1525091,59.4130551 26.6689091,59.3122076 26.3569091,59.4346653 C26.0442,59.5571229 25.8726,59.9360212 25.8414,60.5706398 L25.8414,67.942589 L22.8454909,66.4579703 L22.8454909,59.2999619 C22.8454909,58.5709788 22.6930364,57.9759788 22.3888364,57.5164025 C22.0846364,57.0561059 21.5811818,56.6527161 20.8791818,56.3047924 C20.1764727,55.9568686 19.6772727,55.8639449 19.3808727,56.0260212 C19.0844727,56.1880975 18.9362727,56.6339873 18.9362727,57.3629703 L18.9362727,64.5209788 L15.8226545,62.9780127 L15.8226545,55.487928 C15.8226545,54.0609364 16.2757636,53.235428 17.1826909,53.0106822 C18.0889091,52.7859364 19.3305273,53.0647076 20.9096727,53.8462754 C21.6910909,54.2338178 22.3704,54.6775466 22.9483091,55.1781822 C23.5269273,55.6780975 24.0190364,56.2039449 24.4253455,56.7535636 C24.8316545,56.6217415 25.3159636,56.5850042 25.8789818,56.641911 C26.4412909,56.6980975 27.0979091,56.9127585 27.8474182,57.2844534 C29.4102545,58.0588178 30.6490364,59.0089449 31.5630545,60.1355551 C32.4770727,61.2628856 32.9344364,62.5393263 32.9344364,63.9655975 L32.9344364,71.4564025 Z M50.0341636,9.1931822 L40.2742364,22.899072 C42.1285091,21.3366568 44.5351636,20.389411 47.1630545,20.389411 C53.0102182,20.389411 57.7668,25.0658517 57.7668,30.8148771 C57.7668,32.0733093 57.5391818,33.2813178 57.1215273,34.3992839 L65.9270182,38.8063178 L38.6631818,52.4509788 L11.3993455,38.8063178 L38.0703818,25.4577161 C38.1923455,25.2581822 38.3221091,25.0636907 38.4575455,24.8728008 L36.7344545,22.4531822 C34.3207091,24.2331398 31.3198364,25.2898771 28.0707818,25.2898771 C21.7130727,25.2898771 16.3062545,21.2444534 14.3917091,15.6488602 L0,22.8508093 L11.3716909,38.8200042 L11.3716909,71.342589 L38.6631818,85.0002161 L65.9539636,71.342589 L65.9539636,38.8200042 L77.3256545,22.8508093 L50.0341636,9.1931822 Z" id="Fill-3"></path>
                    <path d="M17.0463327,11.1842712 C17.0463327,5.30126271 21.9830236,0.531898305 28.0712782,0.531898305 C34.1588236,0.531898305 39.0940964,5.30126271 39.0940964,11.1842712 C39.0940964,17.0687203 34.1588236,21.8366441 28.0712782,21.8366441 C21.9830236,21.8366441 17.0463327,17.0687203 17.0463327,11.1842712" id="Fill-6"></path>
                    <path d="M39.20358,30.814661 C39.20358,26.5401695 42.7660527,23.0746186 47.1631255,23.0746186 C51.5601982,23.0746186 55.12338,26.5401695 55.12338,30.814661 C55.12338,35.0891525 51.5601982,38.5547034 47.1631255,38.5547034 C42.7660527,38.5547034 39.20358,35.0891525 39.20358,30.814661" id="Fill-8"></path>
                </g>
            </g>
        </g>
    </g>
</svg>