<?xml version="1.0" encoding="UTF-8" standalone="no"?>
<svg width="182px" height="49px" viewBox="0 0 182 49" version="1.1" xmlns="http://www.w3.org/2000/svg" xmlns:xlink="http://www.w3.org/1999/xlink" xmlns:sketch="http://www.bohemiancoding.com/sketch/ns">
    <!-- Generator: Sketch 3.4.4 (17249) - http://www.bohemiancoding.com/sketch -->
    <title>logo</title>
    <desc>Created with Sketch.</desc>
    <defs></defs>
    <g id="Page-1" stroke="none" stroke-width="1" fill="none" fill-rule="evenodd" sketch:type="MSPage">
        <g id="logo" sketch:type="MSLayerGroup">
            <g id="Page-1" sketch:type="MSShapeGroup">
                <g id="logo">
                    <g id="Group">
                        <path d="M22.9264888,13.6677145 L6.85222785,21.5854362 L6.85222785,40.4336554 L22.9264888,32.5343042 L38.9823793,40.4336554 L38.9823793,21.5854362 L22.9264888,13.6677145 L22.9264888,13.6677145 L22.9264888,13.6677145 Z" id="Shape" fill="#AF1C2E"></path>
                        <path d="M29.6133814,4.42731074 L22.9264888,13.6677145 L38.9640087,21.5854362 L22.9264888,29.4847873 L6.87059843,21.5854362 L22.9264888,13.6677145 L16.2212256,4.42731074 L0.165335256,12.3450324 L6.85222785,21.5854362 L6.85222785,40.4336554 L22.9264888,48.3330065 L38.9823793,40.4336554 L38.9823793,21.5854362 L45.6692718,12.3450324 L29.6133814,4.42731074 L29.6133814,4.42731074 L29.6133814,4.42731074 Z" id="Shape" fill="#F9401C"></path>
                        <path d="M17.9113194,21.6038068 C17.9113194,20.0974189 19.1421485,18.8665898 20.6485364,18.8665898 C22.1732949,18.8665898 23.3857534,20.0974189 23.3857534,21.6038068 C23.3857534,23.1285652 22.1549243,24.3410238 20.6485364,24.3410238 C19.1421485,24.3593944 17.9113194,23.1285652 17.9113194,21.6038068 L17.9113194,21.6038068 L17.9113194,21.6038068 Z M23.936871,15.41292 C23.936871,12.9328911 26.0311175,10.9304975 28.6213699,10.9304975 C31.2116222,10.9304975 33.3058688,12.9328911 33.3058688,15.41292 C33.3058688,17.8929488 31.2116222,19.8953425 28.6213699,19.8953425 C26.0311175,19.8953425 23.936871,17.8929488 23.936871,15.41292 L23.936871,15.41292 L23.936871,15.41292 Z M11.3713915,5.95206921 C11.3713915,2.66373468 14.1820909,0 17.6357607,0 C21.0894304,0 23.9001298,2.66373468 23.9001298,5.95206921 C23.9001298,9.24040373 21.0894304,11.9041384 17.6357607,11.9041384 C14.1820909,11.922509 11.3713915,9.25877436 11.3713915,5.95206921 L11.3713915,5.95206921 L11.3713915,5.95206921 Z" id="Shape" fill="#60C9F8"></path>
                        <path d="M19.5463014,40.4887671 L17.6725018,39.5702379 L17.6725018,35.4184859 C17.6725018,34.9959625 17.5806489,34.6469214 17.4153136,34.3897333 C17.2499783,34.1325451 16.956049,33.8937275 16.5335256,33.6916511 C16.1477433,33.5079452 15.8721845,33.4528335 15.6884787,33.5079452 C15.5047729,33.5814275 15.41292,33.8018746 15.3945494,34.1692862 L15.3945494,38.4312617 L13.6309733,37.5678443 L13.6309733,33.4160923 C13.6309733,32.9935689 13.5391204,32.6445278 13.3554146,32.3873396 C13.1717087,32.1117808 12.8777794,31.8913338 12.4736265,31.6892574 C12.0694737,31.487181 11.7755444,31.4320692 11.5918385,31.5239221 C11.4081327,31.6157751 11.3346503,31.8729632 11.3346503,32.2954867 L11.3346503,36.4472386 L9.49759191,35.54708 L9.49759191,31.2116222 C9.49759191,30.3849459 9.77315068,29.9073108 10.3058976,29.7787166 C10.8386446,29.6501226 11.5734679,29.8154578 12.4919971,30.2563519 C12.9512617,30.4767988 13.3554146,30.733987 13.6860851,31.0279164 C14.0351262,31.3218457 14.3106849,31.6157751 14.5495025,31.9464456 C14.7883201,31.8729632 15.0822494,31.8545926 15.41292,31.8729632 C15.7435905,31.9097044 16.1293727,32.0382985 16.5702667,32.2403749 C17.488796,32.6812689 18.2236193,33.2323864 18.7563663,33.8937275 C19.2891132,34.5550685 19.564672,35.2898918 19.564672,36.1165681 L19.564672,40.4887671 L19.5463014,40.4887671 L19.5463014,40.4887671 L19.5463014,40.4887671 Z" id="Shape" fill="#FFFFFF"></path>
                        <g id="Shape" transform="translate(51.253930, 9.736410)" fill="#231815">
                            <path d="M22.0998125,26.0862293 L22.0998125,14.9169142 C22.0998125,13.777938 21.860995,12.9696323 21.4017303,12.4919971 C20.9240952,12.0143619 20.1341601,11.7755444 19.031925,11.7755444 C17.9848018,11.7755444 17.2316078,11.9959913 16.735602,12.4185148 C16.2395963,12.8594088 15.9640375,13.5758616 15.9272963,14.5862437 L15.9272963,26.0862293 L11.1876856,26.0862293 L11.1876856,14.9169142 C11.1876856,13.777938 10.948868,12.9696323 10.4712329,12.4919971 C9.99359771,12.0143619 9.18529198,11.7755444 8.08305695,11.7755444 C6.96245134,11.7755444 6.17251624,12.0143619 5.7132516,12.4919971 C5.23561644,12.9696323 5.01516941,13.777938 5.01516941,14.9169142 L5.01516941,26.0862293 L0.073482336,26.0862293 L0.073482336,14.4025378 C0.073482336,12.1796972 0.789935114,10.5447152 2.22284066,9.47922133 C3.65574622,8.43209805 5.6213987,7.89935114 8.11979811,7.89935114 C9.35062726,7.89935114 10.4344917,8.06468637 11.3530209,8.39535688 C12.2715501,8.7260274 13.0431146,9.1669214 13.6860851,9.71803894 C14.3290555,9.20366256 15.10062,8.76276856 15.9824081,8.41372746 C16.8825667,8.06468637 17.9113194,7.89935114 19.1054074,7.89935114 C21.5854362,7.89935114 23.5510887,8.43209805 24.9839943,9.47922133 C26.4352704,10.5263446 27.1517232,12.1613266 27.1517232,14.4025378 L27.1517232,26.0862293 L22.0998125,26.0862293 L22.0998125,26.0862293 L22.0998125,26.0862293 Z M49.2699063,26.012747 C49.0310887,26.0678587 48.7187888,26.1229704 48.3881183,26.1780822 C48.0390772,26.2331939 47.6165537,26.2883057 47.0838068,26.3434174 C46.5694304,26.3985292 45.9448306,26.4352704 45.2283778,26.4720115 C44.511925,26.5087527 43.6668781,26.5271233 42.7116078,26.5271233 C41.0215141,26.5271233 39.4967556,26.3617881 38.1373324,26.0311175 C36.7595386,25.700447 35.5838212,25.1677001 34.5734391,24.4145061 C33.5630569,23.6796828 32.7914924,22.6876712 32.2587455,21.4752127 C31.707628,20.2627541 31.4504398,18.7747369 31.4504398,17.0295314 C31.4504398,15.8354434 31.6892574,14.6964672 32.148522,13.5942322 C32.6261572,12.4919971 33.2874982,11.5183562 34.1325451,10.6733093 C34.9775919,9.82826243 36.0063446,9.1669214 37.2004326,8.65254507 C38.3945205,8.13816869 39.7172026,7.89935114 41.1684787,7.89935114 C42.2890843,7.89935114 43.3362076,8.06468637 44.3465898,8.3769863 C45.3569719,8.70765682 46.2203893,9.18529198 46.9735833,9.86500359 C47.7267772,10.5263446 48.3330065,11.3713915 48.7739005,12.4001442 C49.2147945,13.4288969 49.4352415,14.659726 49.4352415,16.0926316 L49.4352415,16.8641961 C49.4352415,17.1581254 49.416871,17.4520548 49.3985004,17.709243 L36.1900505,17.709243 C36.2635328,18.6277722 36.4656092,19.3809661 36.8146503,19.9688248 C37.1636914,20.5566835 37.622956,21.0343187 38.2291853,21.3833598 C38.817044,21.7324009 39.5334967,21.9712185 40.3785436,22.0998125 C41.2235905,22.2284066 42.1604903,22.301889 43.189243,22.301889 C44.7874838,22.301889 46.1101658,22.2467772 47.1205479,22.1365537 C48.1309301,22.0263302 48.8473828,21.9161067 49.2699063,21.7875126 L49.2699063,26.012747 L49.2699063,26.012747 L49.2699063,26.012747 Z M44.3649603,14.4760202 C44.3649603,13.6677145 44.0894016,12.9696323 43.5566547,12.3817736 C43.0055371,11.7939149 42.1788609,11.5183562 41.0766258,11.5183562 C39.9743908,11.5183562 39.037491,11.7755444 38.3026676,12.3082913 C37.5678443,12.8410382 37.0167267,13.557491 36.6676856,14.4760202 L44.3649603,14.4760202 L44.3649603,14.4760202 L44.3649603,14.4760202 Z M53.7523288,26.0862293 L53.7523288,15.9089258 C53.7523288,13.3554146 54.5238931,11.3897621 56.0853928,9.97522713 C57.6468924,8.57906275 59.8146216,7.88098055 62.5702093,7.88098055 C62.974362,7.88098055 63.3050326,7.88098055 63.6173326,7.89935114 C63.9112616,7.91772172 64.1868206,7.9360923 64.4072675,7.95446288 C64.6460849,7.97283346 64.8665322,8.00957462 65.0869791,8.04631579 C65.307426,8.08305695 65.5646144,8.11979811 65.8218024,8.13816869 L65.8218024,12.1062149 C65.3809086,12.0327325 64.9032733,11.9776207 64.4072675,11.922509 C63.9112616,11.8673973 63.4703679,11.8490267 63.0662147,11.8490267 C61.7251624,11.8490267 60.6780391,12.1796972 59.9064743,12.8410382 C59.13491,13.5023793 58.7491278,14.4760202 58.7491278,15.7619611 L58.7491278,26.0862293 L53.7523288,26.0862293 L53.7523288,26.0862293 L53.7523288,26.0862293 Z M82.9431866,26.2331939 C82.4288102,26.3066763 81.8409517,26.3801586 81.1796106,26.4352704 C80.5182695,26.4903821 79.8385578,26.5271233 79.1221051,26.5271233 C77.4320117,26.5271233 75.9072531,26.3617881 74.5478298,26.0494881 C73.1700359,25.7371882 71.9943189,25.2228118 70.9839367,24.506359 C69.9735545,23.8082768 69.2019901,22.8897477 68.6692427,21.769142 C68.1181253,20.6485364 67.8609374,19.2891132 67.8609374,17.709243 C67.8609374,16.0558904 68.1364958,14.6046143 68.6876138,13.3921557 C69.2387312,12.1613266 70.0102955,11.1509445 71.0023072,10.3242682 C71.9943189,9.5159625 73.1700359,8.90973326 74.5478298,8.50558037 C75.9256236,8.10142753 77.4136412,7.91772172 79.048623,7.91772172 C79.7650757,7.91772172 80.4447873,7.95446288 81.0877579,8.00957462 C81.730728,8.06468637 82.318587,8.13816869 82.8329634,8.21165107 L82.8329634,12.1796972 C82.3920692,12.0878443 81.9144338,12.0143619 81.4000575,11.9592502 C80.8856811,11.9041384 80.2610815,11.8857678 79.5262583,11.8857678 C77.3585291,11.8857678 75.7051767,12.3266618 74.5662003,13.2268205 C73.4455949,14.1086085 72.8761069,15.5598847 72.8761069,17.5622783 C72.8761069,19.3442249 73.4455949,20.6301658 74.5845708,21.4017303 C75.7235473,22.1732949 77.3952701,22.5774477 79.5997404,22.5774477 C80.3161931,22.5774477 80.9407932,22.5590772 81.4919106,22.5039654 C82.0430281,22.4488536 82.5206634,22.3753713 82.9431866,22.2835184 L82.9431866,26.2331939 L82.9431866,26.2331939 L82.9431866,26.2331939 Z M104.675588,26.0862293 L100.229906,26.0862293 L100.229906,23.4224946 C99.8624945,24.0838356 99.1460418,25.039106 98.1724011,25.6269647 C97.4743189,26.0678587 96.2986014,26.5271233 95.0310312,26.5271233 C93.7634606,26.5271233 92.6244846,26.3250468 91.5957319,25.920894 C90.5669791,25.5167412 89.6851911,24.9288825 88.9503679,24.1756885 C88.2155441,23.4224946 87.6276856,22.5039654 87.2235329,21.4384715 C86.8193797,20.354607 86.6173034,19.1605191 86.6173034,17.8194665 C86.6173034,16.4049315 86.8193797,15.10062 87.2235329,13.8881615 C87.6276856,12.6757029 88.2339151,11.6285797 89.0054795,10.7467916 C89.7770438,9.86500359 90.7506849,9.18529198 91.8712903,8.67091565 C93.0102668,8.15653928 94.2962075,7.91772172 95.7291134,7.91772172 C97.0885363,7.91772172 98.3193654,8.10142753 99.4216007,8.48720979 C100.523836,8.87299205 101.460735,9.44248017 102.2323,10.2140447 C103.003864,10.9856092 103.610094,11.9408796 104.032617,13.116597 C104.455141,14.2739438 104.657217,15.633367 104.657217,17.1948666 L104.657217,26.0862293 L104.675588,26.0862293 L104.675588,26.0862293 L104.675588,26.0862293 Z M92.7714494,13.2084499 C92.0366256,14.0902379 91.6508435,15.4312905 91.6508435,17.2132372 C91.6508435,18.9951838 92.0182551,20.1525307 92.7714494,21.0343187 C93.5062726,21.9161067 94.5166549,22.1916655 95.784225,22.1916655 C96.8864599,22.1916655 98.0805479,21.1629128 98.5765538,20.6301658 C99.4583418,19.6748954 99.8992356,18.4073252 99.8992356,17.2132372 C99.8992356,15.4312905 99.5318239,14.0902379 98.7786301,13.2084499 C98.0438069,12.3266618 97.0334247,11.8673973 95.7658545,11.8673973 C94.5166549,11.8673973 93.5246432,12.3082913 92.7714494,13.2084499 L92.7714494,13.2084499 L92.7714494,13.2084499 Z M109.323345,26.0862293 L109.323345,15.9089258 C109.323345,13.3554146 110.09491,11.3897621 111.65641,9.97522713 C113.217909,8.57906275 115.385638,7.88098055 118.141226,7.88098055 C118.545378,7.88098055 118.876049,7.88098055 119.188349,7.89935114 C119.482278,7.91772172 119.757837,7.9360923 119.978284,7.95446288 C120.217102,7.97283346 120.437549,8.00957462 120.657995,8.04631579 C120.878443,8.08305695 121.135631,8.11979811 121.392819,8.13816869 L121.392819,12.1062149 C120.951925,12.0327325 120.47429,11.9776207 119.978284,11.922509 C119.482278,11.8673973 119.041384,11.8490267 118.637232,11.8490267 C117.296179,11.8490267 116.249055,12.1796972 115.477491,12.8410382 C114.705926,13.5023793 114.320144,14.4760202 114.320144,15.7619611 L114.320144,26.0862293 L109.323345,26.0862293 L109.323345,26.0862293 L109.323345,26.0862293 Z M127.381629,6.26436914 C126.536583,6.26436914 125.856871,5.97043979 125.342494,5.36421051 C124.828118,4.75798125 124.57093,4.02315789 124.57093,3.15974045 C124.57093,2.296323 124.828118,1.57987022 125.342494,0.992011534 C125.856871,0.404152848 126.554953,0.128594088 127.418371,0.128594088 C128.263417,0.128594088 128.943129,0.422523432 129.457506,0.992011534 C129.971882,1.57987022 130.22907,2.296323 130.22907,3.15974045 C130.22907,4.02315789 129.971882,4.75798125 129.457506,5.36421051 C128.943129,5.97043979 128.245047,6.26436914 127.381629,6.26436914 L127.381629,6.26436914 L127.381629,6.26436914 Z M124.828118,26.0862293 L124.828118,8.35861572 L129.880029,8.35861572 L129.880029,26.0862293 L124.828118,26.0862293 L124.828118,26.0862293 L124.828118,26.0862293 Z"></path>
                        </g>
                    </g>
                </g>
            </g>
        </g>
    </g>
</svg>