<?xml version="1.0" encoding="UTF-8" standalone="no"?>
<svg width="64px" height="64px" viewBox="0 0 64 64" version="1.1" xmlns="http://www.w3.org/2000/svg" xmlns:xlink="http://www.w3.org/1999/xlink">
    <!-- Generator: Sketch 40.2 (33826) - http://www.bohemiancoding.com/sketch -->
    <title>icon_watch</title>
    <desc>Created with Sketch.</desc>
    <defs></defs>
    <g id="Page-1" stroke="none" stroke-width="1" fill="none" fill-rule="evenodd">
        <g id="replace_all_icons" transform="translate(-156.000000, -161.000000)" fill="#E3463D">
            <g id="Group-2" transform="translate(156.000000, 161.000000)">
                <g id="watch">
                    <g id="Combined-Shape">
                        <path d="M34.2741521,36.2674203 C34.7237218,35.8167327 35,35.1949527 35,34.5083008 L35,12.4916992 C35,11.1257815 33.8807119,10 32.5,10 C31.1096621,10 30,11.1155717 30,12.4916992 L30,32 L16.4914414,32 C15.1290512,32 14,33.1192881 14,34.5 C14,35.8903379 15.1154563,37 16.4914414,37 L32.5085586,37 C33.1883899,37 33.8101198,36.7212973 34.2624554,36.2704821 Z M32,0 C14.3258182,0 0,14.3258182 0,32 C0,49.6727273 14.3258182,64 32,64 C49.6683636,64 64,49.6727273 64,32 C64,14.3258182 49.6683636,0 32,0 Z M32,5 C46.8875,5 59,17.1125 59,32 C59,46.8875 46.8875,59 32,59 C17.1125,59 5,46.8875 5,32 C5,17.1125 17.1125,5 32,5 Z"></path>
                    </g>
                </g>
            </g>
        </g>
    </g>
</svg>